<svg xmlns="http://www.w3.org/2000/svg" version="1.1" width="512" height="512" style=""><rect id="backgroundrect" width="100%" height="100%" x="0" y="0" fill="none" stroke="none"/>





<g class="currentLayer" style=""><title>Layer 1</title><path d="M265.0625,263.625 C266.22777725,263.62531723 266.22777725,263.62531723 267.41659546,263.62564087 C279.08159975,263.6573699 289.83818525,264.36287019 301,268 C302.2271875,268.36222656 303.454375,268.72445313 304.71875,269.09765625 C323.40963795,275.0909301 336.47122783,287.4565509 349,302 C349.93298638,303.05912909 350.86661545,304.11769227 351.80078125,305.17578125 C358.75802328,313.11027946 365.18230784,321.35478485 371.42285156,329.86083984 C373.03638417,332.04934955 374.66847171,334.22293953999997 376.3046875,336.39453125 C385.06926494,348.0785471 393.20919713,360.12724483 401.234375,372.328125 C402.74549916,374.6148704 404.27127641000004,376.88974472 405.8125,379.15625 C445.49900051,437.54522729 445.49900051,437.54522729 440.4921875,471.4375 C439.83923147999997,474.07934504 439.04238476,476.48822948 438,479 C437.64808594,479.8559375 437.29617188,480.71187499999996 436.93359375,481.59375 C430.98024813,494.64002555 420.54612614999996,502.81490371999996 407.27685547,507.85571289 C397.30008937,511.33962756 387.63972868,512.48888759 377.11645508,512.39111328 C375.06719168,512.37503681 373.01990719,512.3910574399999 370.97070312,512.41015625 C359.03321425,512.43073134 347.6179725,510.64241065 336.625,505.875 C335.92366943,505.58004639 335.22233887,505.28509277 334.49975586,504.98120116999996 C328.61042657,502.42935604 323.08331239,499.34420964000003 317.5300293,496.13964844 C291.74813774,481.30068756000003 256.68159311,481.95058991999997 228.4140625,488.87890625 C222.55427304,490.67902152 217.35012551,493.27435406 212.03125,496.29296875 C194.60103548,506.10869522999997 178.58261213,512.18483723 158.32714844,512.29516602 C156.87685306,512.30658187 155.42659612,512.3268649 153.9765625,512.35668945 C135.95314658,512.72598793 118.33906791999999,509.0185222 104.0625,497.25 C93.74989231999999,487.26325539000004 88.99171701,475.13888973999997 88.52905272999999,460.95092773 C88.3611822,444.26121086 93.12400987999999,431.49450048 101,417 C101.58394530999999,415.9171875 102.16789062000001,414.834375 102.76953125,413.71875 C122.55051445000001,378.20779106 145.83251208000001,343.12339213 172,312 C172.81235107,311.03102782999997 172.81235107,311.03102782999997 173.64111328,310.04248047 C198.62574870999998,280.36812434 225.38663742,263.5255723 265.0625,263.625 z" fill="#636ae8" id="svg_1" class="" opacity="1" stroke-opacity="1" stroke="#676ed3" fill-opacity="1"/><path d="M366.56722801754,9.16797 C389.47480801754,25.8248 400.55575801754,53.49106 405.57894801754,80.57813 C406.98236801753995,90.03503 407.32886801754,99.32749 407.33675801754,108.875 C407.33742801754,109.60921 407.33810801754,110.34342 407.33879801754,111.09988 C407.32198801754,122.63487 406.75040801754,133.74252 404.08675801754,145 C403.82934801754,146.12052 403.82934801754,146.12052 403.56673801754,147.26367 C397.67152801753997,172.23536000000001 385.53165801754,197.05337 363.77425801754,211.875 C351.71503801754,219.00934 338.88706801754,220.74945 325.16878801753995,218.52734 C322.68131801754,217.86692 320.43948801754,217.04124 318.08675801754,216 C317.22050801754,215.62102 316.35425801753996,215.24203 315.46175801754,214.85156 C293.56025801754,204.08747 280.85354801754,181.84578 273.10457801753995,159.65308 C260.31325801753997,120.60235 263.81585801754,76.84064 281.33675801754,39.9375 C289.91190801754,23.25023 302.90775801754,8.62918 320.58675801754,1.5625 C336.68589801753996,-3.27982 352.84968801753996,-0.15368 366.56722801754,9.16797 z" fill="#636ae8" id="svg_2" class="" opacity="1" stroke-opacity="1" stroke="#676ed3" fill-opacity="1"/><path d="M200.03988301753998,6.76171875 C225.02971870753998,23.968407290000002 236.92717528753997,52.32258885 242.32503926753998,81.24609375 C248.47602448753997,117.64004576 242.94519115753997,157.4769737 223.08675801753998,189 C220.29217723754,192.87386715 217.29814648753998,196.46688773 214.08675801753998,200 C213.51312520753999,200.65484375 212.93949239753996,201.3096875 212.34847676753998,201.984375 C203.83476042753998,211.1686227 191.06953090753998,218.41395813 178.43441426753998,219.23828125 C161.58170766753997,219.67865547 148.60262270753998,215.21023216 136.14779317754,203.57836914 C117.07876663753999,185.02016941 108.09931369753998,159.81049331 104.08675801753998,134 C103.90113301753998,132.85144531 103.71550801753997,131.70289063 103.52425801753998,130.51953125 C102.71942274753998,123.78270158 102.84317762753997,116.96340225 102.83675801753998,110.1875 C102.83575093753998,109.45178772 102.83474385753998,108.71607544 102.83370625753997,107.95806885 C102.84439747753999,96.40369235 103.47576888753999,85.28549198 106.08675801753998,74 C106.23129414753998,73.34483398 106.37583028753998,72.68966797 106.52474629753998,72.01464844 C111.95426512753998,47.87944514 123.84881486753997,22.05405987 145.08675801753998,8 C162.72664729753998,-2.118656080000001 182.15359443754,-3.9085407100000005 200.03988301753998,6.76171875 z" fill="#636ae8" id="svg_3" class="" stroke-opacity="1" stroke="#676ed3" opacity="1" fill-opacity="1"/><path d="M481.08675801754,164 C482.13863301754,164.598125 483.19050801753997,165.19625 484.27425801754,165.8125 C496.60646638753997,175.40421762 502.43075108754,187.70530394 505.08675801754,203 C505.91816777753996,217.40732335 505.92550835753997,232.0222602 502.08675801754,246 C501.81267110754,247.02335449 501.81267110754,247.02335449 501.53304707754,248.06738281 C496.63969131754,265.83291579 488.03206069754,282.93536942000003 476.08675801754,297 C475.34683614754,297.87785156 474.60691426754,298.75570312 473.84457051754,299.66015625 C460.23902057754,315.26652236 443.66840154754,326.99936628 422.69222676754,329.2578125 C411.77269614754,329.78703046 401.62007462753996,325.97998495 393.58675801754,318.75 C378.98944271754,302.69295317 376.36206580754,284.7884219 376.95931660753996,263.66113281 C378.41327649754,233.30066785 393.59447253753996,204.72182261 414.08675801754,183 C414.67199239753995,182.36191406 415.25722676754,181.72382813000002 415.86019551754,181.06640625 C431.33680961754,164.75420031 459.57953534754,151.64296749 481.08675801754,164 z" fill="#636ae8" id="svg_4" class="" opacity="1" stroke-opacity="1" stroke="#676ed3" fill-opacity="1"/><path d="M82.86019551753998,171.6015625 C87.60198696753997,175.04784381 91.88165258753997,178.92439963 96.08675801753998,183 C96.96847676753998,183.77150391 96.96847676753998,183.77150391 97.86800801753998,184.55859375 C118.54225994753997,203.33120459 131.51824326754,236.12441136 133.24642598753996,263.53222656 C134.13306478753998,283.59748817 131.51724945753998,302.45433865999996 117.52425801753998,317.8125 C116.71988301753998,318.534375 115.91550801753998,319.25625 115.08675801753998,320 C114.36488301753998,320.68062499999996 113.64300801753998,321.36125000000004 112.89925801753998,322.0625 C103.37490191753997,328.62372309 92.49264078753998,330.32518352 81.26644551753998,328.31640625 C57.868472737539975,323.22562218999997 39.603105387539976,306.77147318 26.51595723753998,287.24267578 C18.31940441753997,274.38078063 12.031094127539973,260.72691277 8.086758017539978,246 C7.749023647539971,244.77023438 7.411289267539985,243.54046875 7.063320517539978,242.2734375 C3.1214198075399793,225.09542983 2.5689832475399754,204.55171751 9.086758017539978,188 C9.437383017539972,187.08734375 9.78800801753998,186.1746875 10.149258017539978,185.234375 C14.456603737539979,175.48302288 22.42706535753998,166.57549221 32.14535176753998,162.0390625 C49.817537267539976,155.54237373 68.07363982753998,161.31995487 82.86019551753998,171.6015625 z" fill="#636ae8" id="svg_5" class="" opacity="1" stroke-opacity="1" stroke="#676ed3" fill-opacity="1"/></g></svg>